<svg xmlns="http://www.w3.org/2000/svg" width="70" height="30" viewBox="0 0 70 30">
  <g fill="#26A65B" fill-rule="evenodd">
    <path d="M36.4795737 13.0524862C36.4795737 15.1933702 34.589698 15.9668508 32.9698046 15.9668508L31.3641208 15.9668508 31.3641208 19.8342541 30 19.8342541 30 10.1657459 32.9698046 10.1657459C34.5754885 10.1657459 36.4795737 10.9392265 36.4795737 13.0524862zM35.0301954 13.0939227C35.0301954 12.0027624 34.1634103 11.3535912 32.8987567 11.3535912L31.3641208 11.3535912 31.3641208 14.7790055 32.6145648 14.7790055C33.9928952 14.7790055 35.0301954 14.3370166 35.0301954 13.0939227zM43.9396092 19.8342541L43.9396092 18.6464088 39.6198934 18.6464088 39.6198934 10.1657459 38.2557726 10.1657459 38.2557726 19.8342541 43.9396092 19.8342541zM52.991119 10.1657459L51.6269982 10.1657459 51.6269982 15.6353591C51.6269982 17.7762431 50.6749556 18.8121547 49.1403197 18.8121547 47.6056838 18.8121547 46.6536412 17.7762431 46.6536412 15.6353591L46.6536412 10.1657459 45.2895204 10.1657459 45.2895204 15.2900552C45.2895204 18.3287293 46.4404973 20 49.1119005 20 51.8401421 20 52.991119 18.3287293 52.991119 15.2900552L52.991119 10.1657459zM60.7779751 11.961326L61.616341 10.9944751C60.7211368 10.3314917 59.7264654 10 58.5328597 10 56.9129663 10 55.5346359 10.8425414 55.5346359 12.6657459 55.5346359 14.2127072 56.9840142 14.8618785 58.3339254 15.3176796 59.4849023 15.7044199 60.5506217 16.0773481 60.5506217 17.140884 60.5506217 18.3287293 59.5417407 18.8121547 58.5186501 18.8121547 57.5239787 18.8121547 56.8134991 18.5635359 55.8756661 17.6657459L54.9094139 18.5497238C55.9609236 19.558011 57.0550622 20 58.5044405 20 60.0248668 20 62 19.1574586 62 16.9889503 62 15.179558 60.3943162 14.5441989 58.9875666 14.0607735 57.8934281 13.6878453 56.9129663 13.3701657 56.9129663 12.5276243 56.9129663 11.6712707 57.6376554 11.1878453 58.6891652 11.1878453 59.4706927 11.1878453 60.3090586 11.5331492 60.7779751 11.961326zM20.5211268 15.8873239L20.5211268 14.1126761 16.8873239 14.1126761 16.8873239 10.4788732 15.1126761 10.4788732 15.1126761 14.1126761 11.4788732 14.1126761 11.4788732 15.8873239 15.1126761 15.8873239 15.1126761 19.5211268 16.8873239 19.5211268 16.8873239 15.8873239 20.5211268 15.8873239zM16 6C18.4788856 6 20.5985827 6.88027289 22.3591549 8.64084507 24.1197271 10.4014173 25 12.5211144 25 15 25 17.4788856 24.1197271 19.5985827 22.3591549 21.3591549 20.5985827 23.1197271 18.4788856 24 16 24 13.5211144 24 11.4014173 23.1197271 9.64084507 21.3591549 7.88027289 19.5985827 7 17.4788856 7 15 7 12.5211144 7.88027289 10.4014173 9.64084507 8.64084507 11.4014173 6.88027289 13.5211144 6 16 6L16 6z"/>
  </g>
</svg>
